<?xml version="1.0" encoding="utf-8"?>
<svg id="master-artboard" viewBox="0 0 1400 980" version="1.1" xmlns="http://www.w3.org/2000/svg" x="0px" y="0px" style="enable-background:new 0 0 1400 980;" width="1400px" height="980px"><g transform="matrix(0.7291666666666666, 0, 0, 0.7291666666666666, -0.000008753636393521447, 191.40625)"><g id="git-hero-2_4" data-name="git-hero-2 – 4" class="cls-1" style="clip-path: url('#clip-git-final_1');">
    
    
    <!-- Greetings -->
    
      

    <!--Stars-->
    


    

    <!--Description-->
    



    <!-- Commits -->
    <g id="commits-group" transform="translate(37.5 -118)">
      
      
      
    </g>


    <!-- Pull Requests -->
    
    


    <!-- Issues -->
    
    




    <!-- LinkedIn -->
    <g id="linkedin" transform="translate(0 198)">
      <path id="linkedin-2" data-name="linkedin" class="cls-13" d="M44.571,2.25H3.418A3.443,3.443,0,0,0,0,5.711V46.789A3.443,3.443,0,0,0,3.418,50.25H44.571A3.452,3.452,0,0,0,48,46.789V5.711A3.452,3.452,0,0,0,44.571,2.25ZM14.507,43.393H7.393V20.486h7.125V43.393ZM10.95,17.357a4.125,4.125,0,1,1,4.125-4.125,4.127,4.127,0,0,1-4.125,4.125ZM41.175,43.393H34.061V32.25c0-2.657-.054-6.075-3.7-6.075-3.707,0-4.275,2.893-4.275,5.882V43.393H18.975V20.486H25.8v3.129h.1a7.493,7.493,0,0,1,6.739-3.7c7.2,0,8.539,4.746,8.539,10.918Z" transform="translate(71 530.75)" style="fill: rgb(14, 118, 168);"/>
      <g id="linkedin-handle" transform="translate(-427 27)">
        <text id="handle" data-name="@handle" class="cls-14" transform="translate(566 539)" style="white-space: pre;  stroke: rgb(255, 255, 255);  font-family: 'Segoe UI','Segoe UI','Ubuntu','sans-serif';  font-weight: 700;  font-size: 26px; ;  font-weight: Segoe UI,Segoe UI,Ubuntu,sans-serif"><tspan x="0" y="0">@mikr13</tspan></text>
      </g>
    </g>


    <!-- Twitter -->
    <g id="twitter" transform="translate(0 198)">
      
      <g id="twitter-handle" transform="translate(-20 27)">
        
      </g>
    </g>


  </g></g></svg>